{"buffers":[{"uri":"NED.bin","byteLength":1636872}],"asset":{"version":"2.0","generator":"gltfpack 0.16"},"bufferViews":[{"buffer":0,"byteOffset":0,"byteLength":634704,"byteStride":12,"target":34962},{"buffer":0,"byteOffset":634704,"byteLength":634704,"byteStride":12,"target":34962},{"buffer":0,"byteOffset":1269408,"byteLength":367464,"target":34963}],"accessors":[{"bufferView":0,"byteOffset":0,"componentType":5126,"count":9756,"type":"VEC3","min":[-13,-13,-11.1999903],"max":[13,13,11.3000002]},{"bufferView":1,"byteOffset":0,"componentType":5126,"count":9756,"type":"VEC3"},{"bufferView":2,"byteOffset":0,"componentType":5123,"count":34476,"type":"SCALAR"},{"bufferView":0,"byteOffset":117072,"componentType":5126,"count":37512,"type":"VEC3","min":[-12.4099903,-12.4468803,10.7539797],"max":[7.9499898,12.4468803,13.4539804]},{"bufferView":1,"byteOffset":117072,"componentType":5126,"count":37512,"type":"VEC3"},{"bufferView":2,"byteOffset":68952,"componentType":5123,"count":115560,"type":"SCALAR"},{"bufferView":0,"byteOffset":567216,"componentType":5126,"count":5624,"type":"VEC3","min":[-13.0082998,-12.9966097,13],"max":[8.54829979,12.9966097,15]},{"bufferView":1,"byteOffset":567216,"componentType":5126,"count":5624,"type":"VEC3"},{"bufferView":2,"byteOffset":300072,"componentType":5123,"count":33696,"type":"SCALAR"}],"materials":[{"pbrMetallicRoughness":{"baseColorFactor":[0.43921569,0.501960814,0.564705908,1],"metallicFactor":0},"doubleSided":true},{"pbrMetallicRoughness":{"baseColorFactor":[0.627451003,0.627451003,0.627451003,1],"metallicFactor":0},"doubleSided":true},{"pbrMetallicRoughness":{"baseColorFactor":[0.960784316,0.960784316,0.964705884,1],"metallicFactor":0},"doubleSided":true}],"meshes":[{"primitives":[{"attributes":{"POSITION":0,"NORMAL":1},"mode":4,"indices":2,"material":0}]},{"primitives":[{"attributes":{"POSITION":3,"NORMAL":4},"mode":4,"indices":5,"material":1}]},{"primitives":[{"attributes":{"POSITION":6,"NORMAL":7},"mode":4,"indices":8,"material":2}]}],"nodes":[{"mesh":0},{"mesh":1},{"mesh":2},{"children":[0]},{"children":[1]},{"children":[2]}],"scenes":[{"nodes":[3,4,5]}]}