{"buffers":[{"uri":"NED.bin","byteLength":5748360}],"asset":{"version":"2.0","generator":"gltfpack 0.16"},"bufferViews":[{"buffer":0,"byteOffset":0,"byteLength":2448396,"byteStride":12,"target":34962},{"buffer":0,"byteOffset":2448396,"byteLength":2448396,"byteStride":12,"target":34962},{"buffer":0,"byteOffset":4896792,"byteLength":800688,"target":34963},{"buffer":0,"byteOffset":5697480,"byteLength":50880,"target":34963}],"accessors":[{"bufferView":0,"byteOffset":0,"componentType":5126,"count":187707,"type":"VEC3","min":[-4.9000001,-1.79609954,-3.44289541],"max":[1.64759767,5.4800005,4.95086527]},{"bufferView":1,"byteOffset":0,"componentType":5126,"count":187707,"type":"VEC3"},{"bufferView":2,"byteOffset":0,"componentType":5125,"count":200172,"type":"SCALAR"},{"bufferView":0,"byteOffset":2252484,"componentType":5126,"count":2904,"type":"VEC3","min":[-5,3,-5.73952436],"max":[5,3.29999995,5.73952436]},{"bufferView":1,"byteOffset":2252484,"componentType":5126,"count":2904,"type":"VEC3"},{"bufferView":3,"byteOffset":0,"componentType":5123,"count":9144,"type":"SCALAR"},{"bufferView":0,"byteOffset":2287332,"componentType":5126,"count":840,"type":"VEC3","min":[-1.73205078,-1.67770803,-1.96602142],"max":[1.73205078,2.07607055,1.96602142]},{"bufferView":1,"byteOffset":2287332,"componentType":5126,"count":840,"type":"VEC3"},{"bufferView":3,"byteOffset":18288,"componentType":5123,"count":2508,"type":"SCALAR"},{"bufferView":0,"byteOffset":2297412,"componentType":5126,"count":12582,"type":"VEC3","min":[-5.49658489,2.07610011,-3.9917016],"max":[1.59903812,6.02601433,5.49967146]},{"bufferView":1,"byteOffset":2297412,"componentType":5126,"count":12582,"type":"VEC3"},{"bufferView":3,"byteOffset":23304,"componentType":5123,"count":13788,"type":"SCALAR"}],"materials":[{"pbrMetallicRoughness":{"baseColorFactor":[0.627451003,0.627451003,0.627451003,1],"metallicFactor":0},"doubleSided":true},{"pbrMetallicRoughness":{"baseColorFactor":[0.247058824,0.247058824,0.247058824,1],"metallicFactor":0},"doubleSided":true},{"pbrMetallicRoughness":{"baseColorFactor":[0.898039222,0.792156875,0.619607866,1],"metallicFactor":0},"doubleSided":true},{"pbrMetallicRoughness":{"baseColorFactor":[0.960784316,0.960784316,0.964705884,0],"metallicFactor":0},"alphaMode":"BLEND","doubleSided":true}],"meshes":[{"primitives":[{"attributes":{"POSITION":0,"NORMAL":1},"mode":4,"indices":2,"material":0}]},{"primitives":[{"attributes":{"POSITION":3,"NORMAL":4},"mode":4,"indices":5,"material":1}]},{"primitives":[{"attributes":{"POSITION":6,"NORMAL":7},"mode":4,"indices":8,"material":2}]},{"primitives":[{"attributes":{"POSITION":9,"NORMAL":10},"mode":4,"indices":11,"material":3}]}],"nodes":[{"mesh":0},{"mesh":1},{"mesh":2},{"mesh":3},{"children":[0]},{"children":[1]},{"children":[2]},{"children":[3]}],"scenes":[{"nodes":[4,5,6,7]}]}