{"accessors" : [{"bufferView" : 0, "byteOffset" : 0, "componentType" : 5123, "count" : 3252, "type" : "SCALAR", "max" : [2569], "min" : [0]}, {"bufferView" : 1, "byteOffset" : 0, "componentType" : 5126, "count" : 2570, "type" : "VEC3", "max" : [17.320507049560547, 20.760705947875977, 19.679643630981445], "min" : [-17.320507049560547, -16.777080535888672, -19.679643630981445], "name" : "POSITION"}, {"bufferView" : 0, "byteOffset" : 6504, "componentType" : 5123, "count" : 360, "type" : "SCALAR", "max" : [296], "min" : [0]}, {"bufferView" : 2, "byteOffset" : 0, "componentType" : 5126, "count" : 297, "type" : "VEC3", "max" : [-9.990381240844727, 30, -4.035898208618164], "min" : [-15.990381240844727, 20.76099967956543, -10.964101791381836], "name" : "POSITION"}, {"bufferView" : 0, "byteOffset" : 7224, "componentType" : 5123, "count" : 360, "type" : "SCALAR", "max" : [296], "min" : [0]}, {"bufferView" : 3, "byteOffset" : 0, "componentType" : 5126, "count" : 297, "type" : "VEC3", "max" : [3, 30, 18.464101791381836], "min" : [-3, 20.76099967956543, 11.535898208618164], "name" : "POSITION"}, {"bufferView" : 0, "byteOffset" : 7944, "componentType" : 5123, "count" : 360, "type" : "SCALAR", "max" : [296], "min" : [0]}, {"bufferView" : 4, "byteOffset" : 0, "componentType" : 5126, "count" : 297, "type" : "VEC3", "max" : [15.990381240844727, 30, -4.035898208618164], "min" : [9.990381240844727, 20.76099967956543, -10.964101791381836], "name" : "POSITION"}, {"bufferView" : 0, "byteOffset" : 8664, "componentType" : 5123, "count" : 12744, "type" : "SCALAR", "max" : [10096], "min" : [0]}, {"bufferView" : 5, "byteOffset" : 0, "componentType" : 5126, "count" : 10097, "type" : "VEC3", "max" : [50, 33, 57.414669036865234], "min" : [-50, 30, -57.414669036865234], "name" : "POSITION"}, {"bufferView" : 0, "byteOffset" : 34152, "componentType" : 5123, "count" : 17550, "type" : "SCALAR", "max" : [14098], "min" : [0]}, {"bufferView" : 6, "byteOffset" : 0, "componentType" : 5126, "count" : 14099, "type" : "VEC3", "max" : [14, 10.039005279541016, 3.9999990463256836], "min" : [-12.5, -17.960994720458984, -9.999665260314941], "name" : "POSITION"}, {"bufferView" : 0, "byteOffset" : 69252, "componentType" : 5123, "count" : 16728, "type" : "SCALAR", "max" : [13439], "min" : [0]}, {"bufferView" : 7, "byteOffset" : 0, "componentType" : 5126, "count" : 13440, "type" : "VEC3", "max" : [14, 10.039005279541016, 10], "min" : [-12.5, -17.960994720458984, 0], "name" : "POSITION"}], "asset" : {"generator" : "Aspose.3D 23.2", "version" : "2.0"}, "buffers" : [{"uri" : "data:application/octet-stream;base64,", "byteLength" : 718988}], "bufferViews" : [{"buffer" : 0, "byteOffset" : 0, "byteLength" : 102708, "target" : 34963}, {"buffer" : 0, "byteOffset" : 102712, "byteLength" : 39024, "byteStride" : 12, "target" : 34962}, {"buffer" : 0, "byteOffset" : 141740, "byteLength" : 4320, "byteStride" : 12, "target" : 34962}, {"buffer" : 0, "byteOffset" : 146064, "byteLength" : 4320, "byteStride" : 12, "target" : 34962}, {"buffer" : 0, "byteOffset" : 150388, "byteLength" : 4320, "byteStride" : 12, "target" : 34962}, {"buffer" : 0, "byteOffset" : 154712, "byteLength" : 152928, "byteStride" : 12, "target" : 34962}, {"buffer" : 0, "byteOffset" : 307644, "byteLength" : 210600, "byteStride" : 12, "target" : 34962}, {"buffer" : 0, "byteOffset" : 518248, "byteLength" : 200736, "byteStride" : 12, "target" : 34962}], "meshes" : [{"primitives" : [{"attributes" : {"POSITION" : 1}, "indices" : 0, "mode" : 4}], "name" : ""}, {"primitives" : [{"attributes" : {"POSITION" : 3}, "indices" : 2, "mode" : 4}], "name" : ""}, {"primitives" : [{"attributes" : {"POSITION" : 5}, "indices" : 4, "mode" : 4}], "name" : ""}, {"primitives" : [{"attributes" : {"POSITION" : 7}, "indices" : 6, "mode" : 4}], "name" : ""}, {"primitives" : [{"attributes" : {"POSITION" : 9}, "indices" : 8, "mode" : 4}], "name" : ""}, {"primitives" : [{"attributes" : {"POSITION" : 11}, "indices" : 10, "mode" : 4}], "name" : ""}, {"primitives" : [{"attributes" : {"POSITION" : 13}, "indices" : 12, "mode" : 4}], "name" : ""}], "nodes" : [{"mesh" : 0, "name" : "Corps12"}, {"mesh" : 1, "name" : "Corps14"}, {"mesh" : 2, "name" : "Corps15"}, {"mesh" : 3, "name" : "Corps16"}, {"mesh" : 4, "name" : "Corps8"}, {"mesh" : 5, "name" : "NouvelleVersion_SUPPORT VENTOUSE 1 - NED (CESI) (1)"}, {"mesh" : 6, "name" : "NouvelleVersion_SUPPORT VENTOUSE 2 - NED (CESI) (3)"}], "scene" : 0, "scenes" : [{"nodes" : [0, 1, 2, 3, 4, 5, 6]}]}